<?xml version="1.0" standalone="no"?>
<!DOCTYPE svg PUBLIC "-//W3C//DTD SVG 20010904//EN"
 "http://www.w3.org/TR/2001/REC-SVG-20010904/DTD/svg10.dtd">
<svg version="1.0" xmlns="http://www.w3.org/2000/svg"
 width="6813.000000pt" height="1998.000000pt" viewBox="0 0 6813.000000 1998.000000"
 preserveAspectRatio="xMidYMid meet">

<g transform="translate(0.000000,1998.000000) scale(0.100000,-0.100000)"
fill="#000000" stroke="none">
<path d="M38778 16263 c-11 -26 -29 -67 -39 -90 -11 -23 -19 -44 -19 -47 0 -3
-14 -35 -30 -72 -17 -36 -54 -121 -81 -188 -28 -66 -60 -141 -71 -166 -11 -24
-45 -103 -75 -175 -30 -71 -64 -150 -75 -175 -11 -24 -45 -103 -75 -175 -30
-71 -64 -150 -75 -175 -11 -24 -45 -103 -75 -175 -30 -71 -66 -154 -79 -183
-13 -29 -24 -55 -24 -58 0 -3 -11 -30 -25 -60 -14 -30 -37 -82 -51 -117 -14
-34 -37 -86 -50 -115 -13 -29 -24 -55 -24 -58 0 -3 -11 -30 -25 -60 -14 -30
-37 -82 -51 -117 -14 -34 -35 -81 -45 -104 -10 -23 -19 -50 -19 -60 0 -15 2
-14 16 5 22 32 136 116 192 141 12 6 22 14 22 19 0 5 6 9 13 9 6 1 34 8 60 16
43 14 53 14 92 0 27 -9 54 -28 70 -49 24 -32 29 -34 77 -31 l51 3 47 110 c25
60 54 124 63 141 10 18 17 35 16 38 0 3 10 29 23 58 14 29 30 65 37 81 7 16
15 25 20 20 4 -5 43 -92 85 -194 43 -102 89 -209 102 -238 13 -29 24 -54 24
-57 0 -4 173 -411 201 -472 10 -24 19 -45 19 -48 0 -4 8 -25 19 -48 29 -66
131 -304 221 -517 116 -277 189 -447 216 -508 13 -29 24 -55 24 -57 0 -5 171
-408 201 -472 10 -24 19 -45 19 -48 0 -4 9 -25 19 -48 17 -38 213 -499 313
-737 22 -52 53 -123 69 -158 16 -35 29 -67 29 -71 0 -4 11 -31 25 -59 14 -29
25 -58 25 -65 0 -7 4 -17 9 -22 4 -6 29 -62 56 -125 43 -104 70 -169 95 -225
48 -107 60 -136 60 -141 0 -3 7 -20 15 -37 8 -18 82 -192 165 -387 263 -618
396 -841 660 -1114 116 -120 262 -241 387 -323 151 -99 391 -203 568 -247 224
-55 555 -77 842 -56 l173 13 0 117 c0 96 -3 119 -15 124 -8 3 -55 10 -103 16
-86 11 -148 24 -187 41 -11 4 -36 11 -55 15 -19 3 -41 10 -50 14 -44 23 -136
65 -143 65 -4 0 -23 12 -41 27 -19 16 -37 28 -40 28 -17 0 -93 63 -174 143
-95 93 -206 247 -273 377 -18 36 -36 67 -39 70 -4 3 -15 26 -26 52 -10 27 -22
48 -26 48 -5 0 -8 6 -8 14 0 8 -13 40 -29 72 -43 87 -91 192 -113 249 -10 28
-30 75 -44 105 -15 30 -64 147 -111 260 -46 113 -93 224 -104 247 -10 24 -19
45 -19 48 0 4 -9 25 -19 48 -10 23 -31 71 -45 107 -15 36 -31 74 -36 85 -31
64 -210 502 -210 513 0 6 -4 12 -10 12 -5 0 -10 6 -10 13 0 14 -47 132 -91
225 -16 35 -29 65 -29 68 0 3 -9 24 -19 47 -11 23 -47 110 -81 192 -34 83 -70
169 -81 192 -10 24 -19 45 -19 48 0 4 -9 25 -19 48 -10 23 -31 71 -45 107 -15
36 -31 74 -36 85 -31 64 -210 502 -210 513 0 6 -4 12 -10 12 -5 0 -10 6 -10
14 0 12 -14 46 -61 153 -11 23 -19 44 -19 48 0 3 -9 24 -19 48 -11 23 -34 76
-51 117 -45 109 -46 111 -68 160 -11 25 -41 97 -66 160 -26 63 -53 129 -61
145 -7 17 -25 59 -40 95 -14 36 -32 79 -40 95 -43 96 -205 494 -205 503 0 7
-4 12 -10 12 -5 0 -10 6 -10 14 0 12 -14 46 -61 153 -11 23 -19 44 -19 47 0 3
-11 30 -25 60 -14 30 -25 57 -25 60 0 3 -12 31 -26 63 -14 32 -29 67 -34 78
-4 11 -17 40 -28 65 -11 25 -41 97 -66 160 -26 63 -56 134 -67 157 -10 24 -19
45 -19 48 0 6 -10 30 -55 130 -7 17 -25 59 -40 95 -15 36 -33 79 -40 95 -7 17
-46 109 -85 205 -40 96 -81 195 -92 220 -29 64 -33 75 -73 175 -20 50 -43 104
-50 120 -55 122 -65 146 -65 151 0 3 -6 20 -14 37 -53 122 -67 154 -75 167 -6
12 -33 16 -115 18 l-107 3 -21 -48z"/>
<path d="M4023 16184 c-9 -4 -13 -38 -13 -118 l0 -113 163 -7 c89 -4 200 -11
247 -16 47 -5 97 -10 112 -10 15 0 29 -4 33 -10 3 -5 15 -10 26 -10 10 0 27
-4 37 -9 27 -15 56 -24 66 -22 5 1 12 -2 15 -6 3 -5 23 -17 43 -26 54 -25 148
-116 186 -180 40 -66 104 -250 127 -362 53 -255 49 10 52 -3737 l3 -3467 958
-6 c526 -3 1029 -7 1117 -8 173 -2 683 17 910 34 301 23 653 77 915 140 47 12
90 22 95 24 82 19 216 61 355 110 88 31 102 37 153 59 21 9 43 16 50 16 7 0
42 16 80 35 37 18 67 32 67 30 0 -8 285 138 292 149 4 6 8 8 8 4 0 -8 31 8
133 70 37 23 71 42 76 42 5 0 11 3 13 8 3 7 112 82 134 92 37 17 272 207 393
319 89 81 248 249 318 336 18 22 47 58 65 81 19 22 55 73 82 112 27 40 53 72
58 72 4 0 8 5 8 12 0 10 56 105 70 118 5 5 36 60 54 97 6 13 14 23 19 23 4 0
7 4 7 9 0 4 36 84 81 177 86 180 90 190 109 244 7 19 19 49 26 65 16 36 75
216 99 300 19 67 24 83 26 90 1 4 12 45 39 155 20 80 33 137 36 165 2 17 9 57
14 90 16 88 38 272 52 420 16 173 15 655 -1 830 -7 77 -14 158 -16 180 -3 47
-20 159 -34 230 -6 28 -15 77 -20 111 -6 33 -15 73 -21 88 -5 15 -10 40 -10
56 0 16 -5 32 -10 35 -6 4 -8 15 -5 24 3 10 -2 32 -11 49 -8 18 -13 36 -9 42
3 5 2 10 -3 10 -5 0 -12 12 -15 28 -14 71 -30 128 -38 137 -5 5 -9 18 -9 30 0
12 -4 25 -8 30 -4 6 -14 28 -21 50 -7 22 -19 54 -26 70 -7 17 -20 50 -30 75
-10 25 -28 69 -41 98 -13 29 -24 57 -24 62 0 6 -4 10 -10 10 -5 0 -10 6 -10
14 0 17 -82 180 -92 184 -5 2 -8 8 -8 14 0 20 -192 317 -237 368 -13 14 -23
28 -23 32 0 5 -8 16 -17 26 -18 19 -32 34 -117 134 -48 58 -243 251 -326 325
-58 51 -256 203 -265 203 -4 0 -25 15 -48 33 -23 19 -49 37 -57 41 -35 16
-113 68 -122 81 -4 5 -8 7 -8 2 0 -4 -18 4 -40 18 -22 14 -44 25 -49 25 -5 0
-11 4 -13 8 -3 8 -331 174 -353 178 -9 3 -134 53 -182 74 -87 38 -333 121
-478 160 -444 122 -824 184 -1385 226 -172 14 -494 17 -2005 20 -990 2 -1806
1 -1812 -2z m3817 -441 c8 -3 51 -9 95 -14 163 -19 225 -29 250 -39 24 -10 81
-21 112 -20 12 0 25 -5 28 -10 3 -6 17 -10 30 -10 13 0 27 -4 30 -10 3 -5 19
-10 35 -10 16 0 31 -4 34 -9 3 -5 15 -7 26 -4 11 3 20 0 20 -6 0 -6 9 -11 20
-11 11 0 29 -4 40 -10 11 -5 29 -15 40 -20 12 -6 25 -8 30 -5 5 3 11 1 15 -5
3 -5 15 -10 26 -10 10 0 19 -4 19 -9 0 -5 18 -12 40 -16 22 -4 40 -11 40 -16
0 -5 8 -9 19 -9 10 0 24 -7 31 -15 10 -13 3 -36 -43 -138 -61 -133 -121 -306
-170 -487 -30 -114 -30 -118 -36 -440 -7 -362 -7 -359 -83 -472 -21 -31 -38
-61 -38 -65 0 -4 -37 -49 -81 -98 -317 -349 -518 -583 -542 -628 -28 -53 -44
-137 -34 -179 11 -41 74 -56 249 -60 142 -3 208 -40 208 -117 0 -20 -18 -82
-41 -138 -29 -70 -40 -109 -35 -126 8 -32 53 -87 72 -87 8 0 14 -3 14 -7 0 -9
88 -36 172 -54 63 -13 67 -23 12 -34 -20 -3 -44 -10 -53 -14 -84 -42 -110 -57
-133 -79 -15 -14 -30 -33 -33 -43 -10 -29 34 -109 91 -169 49 -51 54 -61 54
-101 0 -29 -9 -58 -25 -84 -74 -121 -78 -134 -73 -220 3 -67 10 -91 32 -131
53 -91 138 -165 226 -196 126 -44 215 -51 475 -36 328 18 448 10 495 -34 30
-28 100 -138 142 -223 96 -194 128 -325 135 -550 6 -192 -4 -302 -41 -457 -77
-316 -214 -601 -442 -915 -90 -123 -93 -125 -319 -242 -38 -20 -71 -39 -73
-43 -2 -4 -19 -10 -38 -14 -19 -3 -34 -10 -34 -15 0 -5 -7 -9 -15 -9 -8 0 -23
-4 -33 -10 -9 -5 -35 -16 -57 -25 -22 -9 -47 -20 -55 -25 -9 -4 -31 -11 -50
-15 -34 -7 -45 -12 -86 -33 -12 -6 -42 -13 -68 -17 -25 -4 -46 -11 -46 -16 0
-5 -11 -9 -25 -9 -14 0 -33 -4 -43 -10 -9 -5 -42 -14 -72 -19 -30 -5 -77 -15
-105 -22 -27 -6 -61 -13 -75 -15 -14 -2 -59 -8 -100 -14 -41 -5 -163 -16 -270
-24 -320 -21 -710 9 -1135 89 -11 2 -47 8 -80 14 -33 5 -82 15 -110 21 -27 6
-61 13 -75 16 -14 2 -31 7 -37 9 -10 3 -13 702 -13 3449 0 2948 2 3445 14
3440 8 -3 17 -1 21 5 3 6 19 11 35 11 16 0 32 5 35 11 4 5 12 8 18 6 7 -2 21
1 32 7 11 6 29 11 40 13 37 4 80 14 102 25 13 6 26 9 29 5 4 -3 16 -2 26 4 11
6 34 13 52 15 17 2 54 8 81 14 28 6 69 13 93 15 23 3 51 9 62 15 10 5 34 10
52 9 18 0 71 5 118 12 47 6 146 15 220 18 141 8 504 3 530 -6z m1138 -334 c2
-5 8 -9 14 -9 5 0 23 -9 39 -21 16 -11 29 -18 29 -14 0 3 25 -10 55 -30 31
-19 59 -35 64 -35 4 0 16 -9 26 -20 10 -11 24 -20 32 -20 7 0 16 -7 19 -15 4
-8 10 -15 15 -15 13 0 56 -30 190 -137 463 -367 829 -913 1039 -1552 135 -408
218 -931 208 -1306 l-3 -120 -23 65 c-57 156 -226 457 -313 555 -10 11 -44 52
-76 92 -115 142 -201 234 -383 409 -369 356 -623 617 -654 672 -6 9 -20 28
-33 42 -13 14 -23 30 -23 37 0 6 -4 13 -8 15 -13 4 -92 123 -92 137 0 6 -4 11
-10 11 -5 0 -10 9 -10 20 0 11 -4 20 -9 20 -5 0 -13 15 -16 33 -4 17 -11 34
-15 37 -12 8 -60 149 -60 175 0 13 -5 27 -10 30 -6 4 -10 12 -9 18 1 7 -2 30
-6 52 -5 22 -9 45 -10 50 -1 6 -4 17 -7 25 -4 8 -9 38 -12 65 -3 28 -9 77 -13
110 -10 82 -10 539 0 598 8 47 10 48 35 42 15 -3 29 -11 30 -16z"/>
<path d="M17162 16178 c-15 -15 -17 -6411 -2 -6838 21 -582 85 -830 261 -1015
114 -119 238 -176 459 -211 103 -17 185 -19 798 -19 l683 0 0 115 1 115 -204
7 c-228 8 -332 22 -433 60 -54 20 -135 62 -135 70 0 4 -6 8 -13 8 -17 0 -107
94 -138 145 -31 51 -45 82 -76 175 -45 135 -56 188 -85 375 -7 48 -12 1159
-14 3539 -3 2743 -7 3472 -17 3478 -6 4 -251 8 -542 8 -404 0 -534 -3 -543
-12z"/>
<path d="M23163 16184 c-16 -7 -18 -219 -3 -229 5 -3 46 -8 92 -10 71 -4 259
-20 338 -29 46 -5 105 -19 115 -26 6 -4 29 -11 52 -15 24 -4 45 -11 49 -16 3
-5 14 -9 25 -9 10 0 19 -4 19 -10 0 -5 8 -10 18 -10 9 0 34 -11 54 -25 20 -14
42 -25 47 -25 24 0 187 -178 221 -240 19 -36 35 -67 35 -70 0 -3 6 -14 12 -25
20 -36 72 -179 87 -240 54 -213 50 70 53 -3673 l3 -3442 243 2 242 3 2 3200
c2 1760 3 3206 3 3213 0 6 5 12 11 12 6 0 9 -6 7 -12 -3 -7 3 -17 13 -23 10
-5 147 -172 305 -370 158 -198 351 -439 429 -535 78 -96 251 -312 386 -480
135 -168 346 -431 470 -585 319 -397 789 -982 1174 -1461 1065 -1326 1360
-1694 1714 -2134 113 -140 331 -412 484 -603 l279 -348 122 3 121 3 3 4099 c2
3273 0 4101 -10 4108 -15 9 -439 11 -462 2 -15 -6 -16 -282 -16 -3028 0 -1663
-3 -3025 -6 -3029 -3 -3 -25 18 -48 48 -41 52 -365 458 -386 482 -16 20 -166
205 -369 458 -101 127 -197 246 -213 265 -16 19 -32 40 -36 45 -4 6 -66 82
-137 170 -71 88 -192 239 -269 335 -78 96 -145 180 -151 186 -5 6 -19 23 -30
38 -11 16 -25 33 -31 40 -5 6 -39 47 -75 92 -127 159 -473 589 -483 600 -6 6
-18 22 -26 34 -8 13 -22 30 -31 39 -8 9 -105 129 -215 266 -109 138 -201 252
-205 255 -3 3 -39 48 -81 100 -96 121 -499 622 -542 675 -30 36 -169 209 -474
590 -57 72 -114 141 -125 155 -12 14 -110 136 -218 271 -246 306 -399 457
-592 586 -214 143 -380 216 -608 267 -217 48 -335 57 -874 62 -275 2 -506 1
-512 -2z"/>
<path d="M46303 16184 c-14 -6 -19 -234 -5 -234 213 -1 530 -25 547 -41 5 -5
17 -9 27 -9 10 0 26 -4 36 -9 9 -5 26 -13 37 -17 11 -4 22 -8 25 -9 3 -2 15
-6 28 -10 12 -4 22 -11 22 -16 0 -5 5 -9 11 -9 23 0 112 -75 151 -127 82 -111
146 -305 183 -548 33 -223 35 -458 35 -3767 l0 -3298 550 0 550 0 0 1870 0
1870 429 0 429 0 648 -1102 c648 -1103 782 -1325 909 -1513 69 -102 214 -306
225 -315 3 -3 41 -50 84 -105 103 -130 400 -424 501 -497 79 -56 242 -158 252
-158 2 0 33 -13 68 -29 132 -62 317 -109 515 -132 167 -19 493 -7 660 25 145
27 290 70 302 89 4 7 8 60 8 120 0 126 8 117 -138 142 -129 21 -156 27 -167
35 -5 4 -27 11 -49 14 -21 4 -46 11 -55 16 -9 4 -43 20 -76 35 -102 46 -109
49 -141 72 -17 13 -34 23 -38 23 -18 0 -170 124 -270 220 -218 211 -435 495
-660 865 -36 61 -71 117 -76 125 -25 42 -108 180 -130 217 -14 23 -47 79 -75
125 -27 46 -61 102 -75 125 -14 23 -47 79 -75 125 -27 46 -61 102 -75 125 -14
23 -47 79 -75 125 -27 46 -61 102 -75 125 -14 23 -47 79 -75 125 -27 46 -61
102 -75 125 -14 23 -47 79 -75 125 -27 46 -61 102 -75 125 -14 23 -47 79 -75
125 -27 46 -61 102 -75 125 -14 23 -47 79 -75 125 -134 223 -165 276 -165 286
0 5 35 16 78 26 42 9 88 21 102 26 14 5 52 16 85 25 33 9 69 21 80 26 11 4 45
16 75 25 30 8 64 19 75 24 11 4 43 16 70 25 28 9 64 23 82 31 17 8 34 14 37
14 3 0 30 11 60 25 30 14 60 25 65 25 6 0 11 4 11 9 0 5 10 12 23 16 12 4 24
9 27 10 3 1 15 6 28 10 12 4 22 11 22 15 0 4 8 10 18 13 42 14 154 87 287 187
119 88 258 225 339 333 228 306 337 583 377 966 14 133 7 542 -11 636 -6 33
-18 98 -27 145 -21 113 -87 315 -133 409 -170 346 -519 683 -920 888 -373 191
-712 285 -1230 343 -381 43 -385 43 -2175 46 -946 2 -1726 1 -1732 -2z m3337
-441 c14 -6 82 -19 145 -28 87 -14 105 -18 105 -26 0 -5 13 -9 29 -9 17 0 33
-5 37 -11 3 -6 15 -9 25 -6 10 3 22 1 25 -4 3 -5 16 -9 30 -9 13 0 24 -4 24
-10 0 -5 11 -10 25 -10 14 0 25 -5 25 -11 0 -6 9 -9 20 -6 11 3 20 1 20 -4 0
-5 9 -9 20 -9 11 0 20 -4 20 -10 0 -5 8 -10 18 -10 10 0 22 -3 26 -7 4 -5 11
-8 14 -8 13 -1 87 -39 93 -48 3 -5 9 -9 12 -9 16 0 47 -11 47 -17 0 -3 15 -13
33 -20 17 -8 43 -22 57 -31 14 -9 45 -30 70 -46 57 -37 133 -95 143 -111 4 -7
14 -13 21 -13 18 0 201 -191 268 -280 66 -89 156 -235 164 -267 4 -13 10 -23
14 -23 4 0 10 -8 13 -17 3 -10 21 -61 40 -114 120 -327 127 -797 17 -1119
-107 -310 -354 -617 -655 -815 -114 -75 -279 -165 -302 -165 -7 0 -13 -4 -13
-10 0 -5 -8 -10 -18 -10 -10 0 -22 -4 -28 -9 -8 -7 -202 -77 -279 -100 -234
-70 -538 -97 -793 -71 -222 23 -470 64 -614 101 l-38 10 0 1623 c0 1287 3
1626 13 1634 13 10 63 22 109 25 14 1 30 5 34 10 4 4 24 7 45 7 21 0 40 4 43
9 3 5 32 11 63 15 32 4 72 9 88 11 160 22 218 28 335 34 138 8 383 4 410 -6z"/>
<path d="M57064 16177 c-2 -7 -3 -61 -2 -120 l3 -107 155 -5 c85 -2 196 -9
245 -15 50 -6 102 -12 117 -13 14 -1 30 -5 34 -9 4 -5 18 -8 30 -8 13 0 26 -4
29 -10 3 -5 13 -10 22 -10 22 0 123 -50 123 -61 0 -5 5 -9 11 -9 16 0 111 -88
134 -124 10 -17 22 -33 26 -36 9 -7 76 -179 84 -215 4 -16 10 -39 15 -50 7
-19 29 -130 50 -255 5 -30 12 -88 15 -128 3 -40 5 -1612 5 -3493 l0 -3419
2217 3 c2060 3 2223 4 2287 20 192 48 307 111 428 234 141 143 151 163 340
673 27 74 65 176 83 225 18 50 59 160 90 245 31 85 74 202 96 259 24 63 36
108 31 113 -5 5 -25 13 -43 18 -40 10 -147 39 -170 46 -13 3 -26 -19 -59 -98
-62 -149 -107 -237 -215 -416 -14 -23 -48 -75 -58 -87 -137 -179 -364 -405
-406 -405 -6 0 -11 -3 -11 -8 0 -4 -17 -16 -37 -27 -21 -11 -40 -22 -43 -26
-10 -11 -145 -78 -172 -85 -16 -3 -28 -11 -28 -16 0 -6 -7 -8 -15 -4 -8 3 -20
0 -27 -7 -7 -7 -40 -21 -73 -31 -33 -9 -68 -22 -78 -27 -11 -6 -21 -8 -24 -5
-3 3 -15 0 -26 -5 -11 -6 -29 -12 -41 -14 -11 -1 -50 -9 -86 -18 -36 -9 -81
-18 -100 -21 -19 -3 -51 -8 -70 -11 -147 -25 -299 -29 -1452 -32 l-1228 -3 0
1717 0 1718 1652 0 1653 0 3 242 2 243 -1652 2 -1653 3 -3 1598 -2 1597 1237
-4 c835 -2 1269 -7 1333 -15 175 -21 242 -32 255 -41 6 -4 34 -11 62 -15 29
-4 55 -11 59 -16 3 -5 16 -9 30 -9 13 0 24 -4 24 -10 0 -5 9 -10 19 -10 11 0
23 -5 26 -10 4 -6 12 -10 18 -9 15 3 48 -11 67 -27 8 -7 17 -13 20 -14 32 -6
50 -14 50 -22 0 -5 6 -8 13 -5 6 2 29 -9 50 -25 20 -16 37 -26 37 -21 1 4 9
-2 18 -13 10 -12 27 -24 38 -28 36 -12 180 -160 237 -244 37 -54 117 -213 117
-232 0 -6 4 -18 9 -28 6 -9 17 -44 26 -77 9 -33 20 -73 25 -90 4 -16 11 -52
15 -80 4 -27 9 -66 12 -85 3 -19 8 -91 11 -160 l7 -125 120 0 120 0 3 480 c3
531 -6 666 -53 830 -63 216 -195 369 -410 474 -111 55 -175 75 -309 99 -82 14
-365 16 -2789 19 -2256 3 -2698 1 -2703 -10z"/>
<path d="M37923 13815 c-93 -40 -267 -188 -353 -300 -75 -98 -133 -229 -164
-375 -33 -150 -38 -171 -54 -189 -9 -10 -72 -65 -139 -120 -180 -150 -370
-338 -523 -519 -74 -88 -136 -159 -138 -158 -1 2 7 29 18 60 11 32 27 95 35
139 15 77 22 124 45 309 6 43 13 95 16 115 33 219 48 373 38 383 -6 6 -42 -18
-94 -64 -231 -200 -347 -401 -395 -686 -15 -88 -16 -129 -9 -255 24 -401 8
-508 -115 -753 -44 -86 -91 -184 -104 -217 -14 -33 -39 -89 -55 -125 -16 -36
-58 -137 -93 -225 l-64 -160 -2 105 c-2 125 -19 387 -35 558 -11 118 -8 191
18 372 l5 35 -21 -25 -22 -24 4 29 c2 24 7 30 26 28 26 -3 30 15 5 24 -12 5
-37 -14 -90 -72 -122 -128 -202 -286 -245 -485 -18 -80 -21 -129 -21 -305 0
-216 7 -292 58 -590 61 -362 69 -425 69 -520 0 -61 -9 -143 -22 -210 -59 -300
-84 -730 -62 -1064 4 -74 6 -140 4 -146 -3 -7 -16 -17 -30 -23 -59 -28 -82
-125 -43 -189 26 -42 66 -63 120 -63 80 0 147 81 134 161 -8 44 -57 98 -97
106 l-28 6 1 216 c0 119 4 280 8 359 l9 143 38 56 c58 84 170 200 254 262 41
31 77 56 80 57 34 10 50 18 50 24 0 7 36 21 44 17 1 -1 9 3 17 9 8 7 37 24 64
39 82 45 204 136 268 200 92 93 147 181 192 307 41 118 48 360 9 375 -9 3 -48
-27 -104 -81 -101 -96 -241 -195 -395 -280 -172 -95 -318 -254 -425 -462 -27
-51 -39 -69 -36 -49 3 17 12 80 21 140 8 61 20 128 25 150 5 22 17 74 26 115
22 104 64 279 74 315 37 122 144 442 151 452 11 12 94 53 149 73 19 6 44 16
55 21 11 4 83 24 160 43 163 41 181 46 255 75 202 80 378 217 491 382 33 49
71 124 110 214 14 34 30 106 43 192 19 131 14 132 -129 26 -125 -93 -247 -173
-265 -173 -5 0 -10 -5 -10 -12 0 -6 -3 -8 -6 -5 -4 4 -19 -2 -33 -12 -32 -21
-95 -51 -110 -51 -6 0 -11 -4 -11 -10 0 -5 -6 -10 -13 -10 -15 0 -221 -103
-272 -135 -48 -30 -147 -105 -184 -139 -46 -42 -40 -27 66 164 123 221 334
549 400 621 13 15 32 41 41 60 9 18 24 35 32 37 9 3 6 -5 -9 -22 -35 -37 -20
-42 41 -13 89 43 161 56 258 47 182 -17 449 -6 530 22 8 3 40 13 70 23 137 44
292 184 425 385 17 25 37 50 45 57 13 11 13 12 0 12 -8 0 -24 -6 -34 -14 -34
-26 -50 -18 -27 12 22 27 21 43 -1 26 -40 -30 -191 -63 -289 -63 -66 0 -296
-26 -364 -41 -156 -34 -297 -99 -425 -195 -38 -29 -70 -49 -70 -45 0 11 358
401 368 401 5 0 49 38 99 85 l90 84 394 4 c388 4 408 5 534 40 22 6 55 26 73
43 25 26 32 40 32 72 0 28 7 49 23 69 56 66 45 138 -35 233 l-59 70 11 121
c14 135 8 162 -42 204 -23 19 -41 25 -80 25 -45 0 -55 4 -94 40 -40 36 -48 40
-96 40 -29 -1 -67 -7 -85 -15z m158 -111 c50 -45 52 -45 104 -39 46 6 56 4 74
-14 35 -35 28 -52 -18 -45 -77 12 -159 -16 -331 -114 -193 -111 -354 -242
-435 -355 -22 -31 -43 -56 -47 -57 -3 0 0 28 8 63 46 203 153 358 337 488 83
59 201 119 234 119 12 0 45 -20 74 -46z m174 -256 c0 -76 1 -78 39 -116 29
-31 36 -45 31 -62 -11 -33 -64 -89 -106 -111 -42 -21 -161 -50 -284 -69 -193
-29 -264 -41 -323 -56 -35 -8 -66 -14 -68 -12 -2 2 19 21 46 41 52 39 60 54
35 63 -9 4 -38 -11 -71 -36 -30 -23 -58 -40 -60 -37 -7 7 146 148 226 208 41
31 122 86 180 121 177 110 266 149 325 145 l30 -2 0 -77z m152 -241 c4 -30 0
-45 -21 -78 -15 -23 -30 -57 -33 -77 -3 -21 -10 -44 -14 -53 -27 -52 -163 -67
-444 -48 -110 7 -240 13 -288 13 -49 -1 -85 2 -80 6 17 15 196 51 406 80 120
17 242 40 272 51 74 27 131 71 156 120 23 47 36 43 46 -14z m-1709 -85 c2 -7
-3 -12 -12 -12 -9 0 -16 7 -16 16 0 17 22 14 28 -4z m-77 -177 c-78 -136 -126
-322 -142 -550 -14 -210 -30 -365 -39 -391 -5 -12 -28 -49 -52 -82 -24 -33
-53 -77 -66 -98 l-23 -39 6 35 c12 78 25 240 25 320 2 306 110 648 273 863 50
66 52 68 55 40 2 -19 -10 -52 -37 -98z m4 -246 c-29 -257 -47 -368 -74 -456
-30 -98 -73 -203 -84 -203 -5 0 -6 10 -3 23 4 12 13 96 21 187 23 249 42 363
85 490 43 130 69 194 75 188 3 -3 -7 -105 -20 -229z m-170 122 c-87 -172 -144
-458 -146 -728 0 -97 -7 -180 -25 -310 -3 -24 -10 -43 -16 -43 -6 0 -6 21 -1
58 10 70 10 143 -1 337 -16 276 34 480 169 691 44 68 55 66 20 -5z m1390 -274
c-57 -38 -239 -78 -440 -97 -190 -18 -301 -37 -424 -76 -47 -14 -12 12 71 54
126 63 250 91 458 103 145 8 301 21 345 28 5 0 1 -5 -10 -12z m-50 -93 c-64
-58 -159 -112 -240 -137 -77 -24 -184 -36 -380 -41 -245 -7 -387 -40 -446
-106 -15 -16 -34 -30 -40 -30 -21 0 52 69 121 114 136 89 253 122 550 156 247
29 416 65 470 99 8 6 17 7 20 4 3 -3 -22 -29 -55 -59z m-88 -108 c-37 -37
-148 -98 -216 -120 -118 -37 -241 -49 -471 -45 -113 2 -221 0 -240 -4 -30 -7
-27 -4 17 17 93 45 161 56 406 66 128 5 248 12 267 16 61 11 164 44 200 64 42
23 57 25 37 6z m-577 -536 c0 -4 -7 -10 -15 -14 -10 -4 -15 1 -15 14 0 13 5
18 15 14 8 -4 15 -10 15 -14z m-40 -43 c0 -22 -40 -128 -71 -188 -78 -149
-185 -255 -333 -327 -44 -22 -167 -68 -273 -101 -232 -74 -328 -120 -416 -202
-37 -33 -67 -56 -67 -51 0 16 89 125 133 163 86 74 176 122 402 213 77 32 168
73 203 92 126 71 253 191 342 324 30 45 61 80 72 80 4 0 8 -1 8 -3z m-124
-114 c-48 -67 -170 -183 -239 -227 -71 -46 -154 -83 -289 -131 -172 -61 -315
-136 -387 -201 l-63 -58 20 41 c29 55 172 187 274 250 46 29 175 95 287 147
111 52 251 124 309 160 59 36 110 65 114 65 5 1 -7 -20 -26 -46z m-1270 -8
c-8 -19 -27 -88 -43 -153 -26 -111 -27 -129 -27 -362 1 -202 5 -270 23 -385
12 -77 27 -181 32 -232 9 -90 9 -92 -35 -245 -25 -84 -45 -148 -46 -143 -1 6
-1 40 0 77 1 36 -3 99 -9 140 -60 407 -65 454 -65 648 0 174 3 208 27 320 39
182 73 282 114 329 19 23 37 41 39 41 2 0 -2 -16 -10 -35z m1318 -137 c-129
-250 -354 -425 -672 -524 -264 -81 -309 -97 -361 -125 -30 -16 -57 -26 -60
-23 -11 11 113 113 193 158 43 25 129 63 190 85 61 23 168 61 237 86 208 76
346 176 442 322 43 66 60 78 31 21z m-1288 -373 c25 -229 25 -518 -1 -605
l-20 -65 -6 50 c-4 28 -12 86 -18 130 -26 175 -31 248 -31 430 0 171 19 398
38 445 3 8 9 -39 13 -105 4 -66 15 -192 25 -280z m-181 278 c-11 -29 -45 -232
-51 -308 -8 -87 8 -278 41 -495 14 -91 29 -196 35 -235 16 -108 15 -348 -1
-376 -14 -24 -14 -24 -16 11 -3 40 -14 124 -43 325 -73 491 -77 699 -20 940
19 82 46 155 56 155 3 0 3 -8 -1 -17z m985 -1012 c0 -6 -4 -13 -10 -16 -5 -3
-10 1 -10 9 0 9 5 16 10 16 6 0 10 -4 10 -9z m-35 -234 c-8 -34 -31 -94 -50
-132 -52 -108 -149 -180 -415 -308 -74 -36 -164 -84 -200 -107 -126 -82 -217
-200 -254 -331 -9 -31 -23 -64 -31 -75 -13 -17 -14 -12 -9 46 9 93 21 137 61
210 83 153 161 225 463 427 143 96 215 152 271 210 70 71 129 162 129 196 0 8
10 27 23 43 l22 29 3 -73 c2 -43 -4 -99 -13 -135z m-55 128 c0 -11 -35 -61
-77 -111 -52 -63 -189 -174 -343 -279 -63 -43 -144 -102 -180 -130 -79 -63
-193 -183 -216 -227 -10 -18 -19 -28 -21 -21 -6 17 79 180 131 251 98 133 182
201 395 319 124 70 248 152 276 183 17 19 35 26 35 15z m-150 -479 c-85 -81
-168 -138 -320 -221 -142 -77 -215 -131 -294 -216 -72 -78 -83 -79 -35 -3 87
137 181 213 420 339 90 48 193 108 229 135 36 26 67 45 70 43 3 -3 -29 -37
-70 -77z"/>
<path d="M36974 13696 c-38 -17 -71 -57 -85 -107 -10 -33 -9 -43 12 -85 30
-60 63 -84 122 -90 37 -4 53 0 86 20 155 98 33 335 -135 262z"/>
<path d="M35748 13228 c-93 -25 -177 -150 -164 -246 10 -77 52 -137 131 -188
23 -15 48 -19 109 -19 54 0 81 5 84 13 2 7 10 12 17 12 21 0 89 71 108 113 21
47 22 133 2 181 -22 53 -85 111 -140 130 -54 18 -91 19 -147 4z"/>
<path d="M37036 13079 c-20 -16 -26 -29 -26 -58 0 -47 25 -71 74 -75 29 -3 41
2 56 22 27 34 25 77 -5 107 -30 30 -64 32 -99 4z"/>
<path d="M37996 12681 c-7 -10 22 -37 30 -28 9 8 -3 37 -15 37 -5 0 -12 -4
-15 -9z"/>
<path d="M35888 12365 c-54 -30 -52 -123 3 -154 39 -22 95 -7 114 29 21 41 19
75 -7 104 -29 32 -74 41 -110 21z"/>
<path d="M35168 12025 c-119 -62 -139 -205 -42 -301 107 -108 289 -44 310 109
13 89 -38 171 -125 202 -59 20 -88 18 -143 -10z"/>
<path d="M37511 11908 c-235 -35 -304 -362 -106 -498 116 -80 287 -59 369 45
81 102 92 203 35 316 -18 35 -80 98 -117 118 -33 18 -124 27 -181 19z"/>
<path d="M36698 11886 c-36 -27 -17 -86 27 -86 44 0 61 52 27 83 -22 20 -31
21 -54 3z"/>
<path d="M36287 10636 c-63 -28 -80 -108 -32 -160 35 -38 96 -37 136 3 49 50
35 122 -31 156 -34 17 -36 17 -73 1z"/>
<path d="M35068 10117 c-58 -53 -68 -123 -28 -196 19 -37 70 -61 127 -61 46 0
56 4 92 38 69 64 66 162 -7 222 -31 25 -45 30 -92 30 -49 0 -60 -4 -92 -33z"/>
<path d="M50498 5648 c11 -14 131 -172 195 -258 22 -30 47 -61 54 -68 7 -8 27
-33 43 -58 40 -57 55 -64 135 -64 49 0 67 4 71 15 4 8 -17 112 -46 230 l-52
215 -205 0 c-163 0 -203 -3 -195 -12z"/>
<path d="M19660 5045 c0 -343 -4 -545 -10 -545 -9 0 -29 29 -27 40 1 8 -200
194 -213 196 -3 0 -18 6 -33 12 -16 7 -32 12 -37 12 -4 0 -10 7 -14 15 -3 8
-12 12 -21 9 -8 -4 -15 -1 -15 6 0 7 -6 10 -14 7 -7 -3 -23 1 -35 9 -12 8 -26
12 -31 9 -6 -4 -16 -2 -23 3 -31 25 -283 34 -387 14 -80 -15 -113 -23 -130
-29 -8 -4 -20 -5 -27 -4 -6 1 -14 -3 -18 -9 -3 -5 -15 -10 -26 -10 -10 0 -19
-5 -19 -11 0 -6 -7 -9 -15 -5 -8 3 -15 1 -15 -4 0 -6 -9 -10 -20 -10 -11 0
-20 -4 -20 -10 0 -5 -7 -10 -15 -10 -8 0 -15 -4 -15 -9 0 -5 -9 -13 -21 -16
-25 -8 -32 -14 -123 -97 -84 -77 -134 -143 -184 -245 -32 -62 -71 -162 -77
-193 -35 -183 -38 -207 -32 -359 7 -189 29 -290 95 -441 91 -204 289 -386 494
-454 127 -43 173 -49 338 -49 176 -1 260 14 369 65 25 12 49 21 54 20 4 -1 7
2 7 8 0 5 5 10 11 10 21 0 143 106 189 164 25 31 48 56 52 56 5 0 8 -70 8
-155 l0 -155 210 0 210 0 0 1355 0 1355 -210 0 -210 0 0 -545z m-481 -569
c266 -51 451 -272 476 -571 12 -135 -15 -270 -78 -394 -37 -73 -166 -211 -197
-211 -11 0 -20 -4 -20 -10 0 -5 -7 -10 -15 -10 -8 0 -15 -5 -15 -11 0 -6 -6
-9 -14 -6 -8 3 -17 0 -20 -8 -3 -8 -13 -11 -25 -8 -12 3 -21 1 -21 -6 0 -6
-13 -11 -28 -11 -16 0 -32 -3 -36 -7 -10 -10 -256 -11 -262 -1 -3 4 -16 8 -29
8 -13 0 -27 5 -30 10 -4 6 -15 8 -25 5 -11 -3 -20 0 -24 11 -3 9 -13 14 -20
11 -8 -3 -17 1 -20 9 -3 9 -11 12 -17 9 -5 -4 -16 1 -24 11 -7 11 -18 19 -23
19 -16 0 -137 126 -137 143 0 10 -5 16 -11 15 -9 -2 -46 69 -74 142 -40 103
-39 368 1 447 5 10 9 23 9 28 0 24 45 109 91 170 44 59 117 130 134 130 4 0
19 8 33 19 59 40 196 78 292 80 30 1 88 -5 129 -13z"/>
<path d="M28390 4165 l0 -1285 628 0 c365 0 663 4 712 10 158 19 294 61 406
125 73 42 209 170 234 220 8 17 22 42 32 56 10 14 15 29 11 32 -3 4 -1 12 4
19 25 33 38 118 37 248 0 121 -3 143 -29 218 -15 45 -32 82 -36 82 -5 0 -6 7
-3 15 4 8 -1 17 -10 21 -9 3 -16 10 -16 15 0 6 -18 34 -40 65 -35 47 -66 74
-139 119 -9 6 -18 13 -21 17 -3 3 -17 9 -32 13 -15 4 -29 13 -32 21 -3 7 -12
11 -21 8 -8 -4 -15 -1 -15 6 0 7 -7 10 -16 6 -9 -4 -22 -2 -28 3 -6 4 -28 11
-49 15 -21 4 -35 10 -33 15 3 4 36 19 73 34 90 36 185 109 245 188 26 35 48
68 48 72 0 9 25 69 42 101 15 29 22 224 9 286 -7 30 -13 64 -15 76 -11 62
-119 224 -173 259 -15 10 -36 27 -45 38 -10 11 -18 16 -18 12 0 -4 -9 0 -21
11 -12 10 -23 18 -25 17 -8 -5 -74 31 -74 40 0 5 -7 7 -15 4 -8 -4 -17 -2 -20
3 -4 6 -17 10 -31 10 -13 0 -24 4 -24 9 0 5 -17 12 -37 15 -21 3 -49 8 -63 11
-107 22 -237 28 -787 31 l-613 5 0 -1286z m1280 870 c107 -34 177 -90 222
-175 31 -61 33 -203 3 -270 -24 -54 -112 -146 -149 -156 -14 -3 -26 -10 -26
-16 0 -5 -8 -8 -17 -6 -10 1 -25 -2 -33 -7 -25 -16 -50 -17 -460 -21 l-395 -4
3 332 c2 246 6 334 15 341 7 4 185 6 397 4 334 -3 392 -6 440 -22z m-35 -1045
c259 -42 401 -186 383 -388 -7 -76 -35 -139 -87 -195 -39 -42 -127 -97 -157
-97 -8 0 -14 -5 -14 -11 0 -7 -10 -9 -25 -5 -14 4 -25 2 -25 -4 0 -5 -22 -10
-50 -10 -27 0 -50 -4 -50 -10 0 -6 -138 -10 -395 -10 l-395 0 0 363 c0 200 3
367 7 370 10 11 741 8 808 -3z"/>
<path d="M46498 5023 l-3 -268 -135 -5 -135 -5 -3 -152 -3 -152 138 -3 138 -3
5 -580 c6 -624 6 -619 61 -731 29 -58 97 -135 153 -173 22 -16 75 -41 116 -56
69 -26 87 -28 215 -28 125 -1 149 2 230 27 84 26 230 90 240 105 2 4 -19 75
-46 158 -50 152 -69 181 -94 147 -6 -10 -17 -14 -23 -10 -7 4 -12 2 -12 -3 0
-6 -11 -11 -25 -11 -14 0 -25 -5 -25 -11 0 -5 -8 -9 -17 -7 -10 1 -25 -2 -33
-7 -18 -11 -210 -14 -210 -2 0 4 -5 7 -11 7 -20 0 -77 68 -91 107 -10 30 -13
149 -13 553 l0 515 285 5 285 5 0 150 0 150 -280 3 c-208 2 -281 5 -287 15 -4
6 -8 128 -8 270 l0 257 -205 0 -205 0 -2 -267z"/>
<path d="M23668 4845 c-4 -4 -44 -11 -90 -16 -126 -14 -137 -16 -153 -29 -8
-6 -19 -9 -24 -6 -6 4 -18 2 -28 -3 -44 -23 -99 -45 -107 -43 -5 2 -12 -1 -15
-5 -3 -4 -22 -17 -41 -27 -19 -11 -44 -24 -54 -30 -69 -39 -198 -168 -261
-261 -30 -45 -55 -87 -55 -93 0 -6 -3 -12 -7 -14 -10 -4 -59 -146 -78 -228
-42 -177 -23 -479 39 -625 7 -16 19 -46 26 -65 40 -105 191 -287 300 -361 182
-123 348 -169 609 -169 310 0 517 71 729 250 l73 62 -38 46 c-21 26 -72 80
-113 122 l-75 75 -45 -42 c-24 -23 -46 -40 -49 -38 -2 3 -12 -5 -22 -16 -10
-12 -22 -18 -27 -15 -6 3 -13 -1 -16 -10 -3 -8 -10 -12 -16 -9 -5 3 -10 1 -10
-4 0 -6 -9 -11 -20 -11 -11 0 -20 -5 -20 -11 0 -6 -7 -8 -15 -5 -9 3 -18 -1
-22 -10 -3 -9 -13 -14 -24 -11 -11 3 -19 1 -19 -4 0 -5 -13 -9 -29 -9 -17 0
-33 -5 -37 -11 -3 -6 -19 -9 -35 -7 -16 3 -54 -1 -86 -7 -44 -9 -71 -9 -116 1
-32 6 -66 10 -77 7 -10 -3 -21 0 -24 6 -4 6 -18 11 -31 11 -13 0 -27 5 -30 11
-4 6 -13 8 -21 5 -8 -3 -17 1 -20 9 -3 7 -12 11 -20 8 -8 -3 -14 0 -14 6 0 6
-7 11 -15 11 -9 0 -18 7 -21 15 -4 8 -10 12 -15 9 -9 -5 -159 138 -159 151 0
4 -9 20 -20 35 -24 34 -70 152 -70 180 0 20 9 20 735 20 l735 0 0 159 c0 146
-16 292 -39 361 -4 14 -17 52 -27 85 -20 64 -72 168 -113 225 -37 52 -144 160
-158 160 -6 0 -18 9 -26 20 -8 11 -17 17 -21 13 -4 -4 -11 -1 -16 7 -5 8 -13
16 -17 16 -26 5 -53 18 -53 26 0 5 -6 8 -12 7 -7 -1 -20 0 -28 3 -8 4 -24 9
-35 14 -11 4 -24 6 -28 5 -4 0 -18 4 -30 11 -12 7 -32 11 -45 9 -13 -1 -28 2
-35 7 -7 5 -46 13 -87 16 -41 4 -100 9 -130 12 -30 3 -58 3 -62 -1z m224 -361
c197 -46 342 -217 364 -431 l7 -63 -558 0 -558 0 7 53 c4 28 11 56 17 62 5 5
9 16 9 25 0 21 24 69 66 136 35 54 139 154 161 154 7 0 13 3 13 8 0 4 12 12
28 19 138 60 287 72 444 37z"/>
<path d="M33875 4840 c-11 -5 -48 -9 -82 -9 -34 -1 -65 -6 -68 -12 -4 -6 -14
-8 -22 -5 -8 3 -24 0 -36 -6 -12 -7 -26 -11 -31 -9 -6 1 -19 -2 -30 -7 -76
-36 -102 -46 -113 -44 -7 2 -13 -2 -13 -8 0 -5 -7 -10 -15 -10 -8 0 -15 -5
-15 -11 0 -6 -7 -9 -15 -5 -8 3 -15 1 -15 -3 0 -8 -58 -49 -85 -60 -5 -2 -43
-36 -83 -75 -224 -217 -323 -525 -281 -881 5 -49 14 -101 18 -115 5 -14 17
-52 27 -85 77 -262 303 -488 573 -575 125 -40 197 -50 364 -50 271 0 449 49
637 175 61 42 160 130 160 144 0 3 -10 17 -23 31 -12 14 -40 47 -62 75 -22 27
-59 68 -83 91 l-43 41 -38 -36 c-51 -47 -96 -81 -110 -81 -6 0 -11 -4 -11 -10
0 -5 -7 -7 -15 -4 -8 4 -15 1 -15 -5 0 -6 -7 -11 -15 -11 -8 0 -15 -5 -15 -11
0 -6 -9 -8 -20 -4 -13 4 -22 1 -26 -10 -4 -10 -13 -13 -24 -10 -10 3 -21 1
-25 -5 -3 -5 -17 -10 -30 -10 -13 0 -26 -4 -30 -9 -12 -20 -321 -18 -341 2 -4
4 -18 7 -31 7 -12 0 -23 5 -23 11 0 5 -8 10 -17 9 -25 -3 -63 10 -63 21 0 5
-7 9 -15 9 -8 0 -15 5 -15 11 0 6 -6 9 -12 7 -7 -3 -21 6 -31 19 -10 12 -21
22 -25 20 -11 -3 -54 42 -100 103 -40 54 -85 148 -96 202 -4 16 -7 31 -9 35
-1 5 329 10 733 13 l735 5 0 185 c0 193 -7 242 -51 385 -27 86 -87 218 -115
250 -82 95 -125 141 -138 146 -9 4 -24 16 -35 28 -10 11 -22 18 -26 16 -4 -3
-13 2 -20 10 -7 8 -19 15 -26 15 -8 0 -14 5 -14 11 0 6 -7 8 -15 5 -9 -3 -18
1 -21 9 -3 7 -12 11 -20 8 -8 -3 -14 0 -14 6 0 6 -11 11 -24 11 -14 0 -27 4
-30 9 -5 8 -39 17 -91 25 -11 1 -27 5 -35 9 -14 5 -86 13 -225 22 -33 3 -69 0
-80 -5z m255 -363 c132 -42 250 -139 304 -249 29 -61 62 -199 52 -223 -5 -13
-79 -15 -556 -15 l-550 0 0 21 c0 34 31 130 60 190 77 151 219 257 390 290 62
11 245 3 300 -14z"/>
<path d="M38208 4845 c-3 -4 -53 -11 -110 -16 -155 -14 -161 -15 -184 -27 -12
-6 -24 -8 -28 -5 -5 6 -26 -2 -78 -28 -10 -5 -24 -6 -31 -3 -8 3 -17 -2 -20
-10 -4 -9 -13 -13 -22 -10 -8 3 -15 1 -15 -5 0 -6 -9 -11 -20 -11 -11 0 -20
-4 -20 -10 0 -5 -7 -7 -15 -4 -8 4 -15 2 -15 -3 0 -5 -16 -15 -35 -23 -19 -8
-35 -17 -35 -22 0 -4 -7 -5 -15 -2 -8 4 -15 1 -15 -5 0 -6 -7 -11 -15 -11 -8
0 -15 -3 -15 -8 0 -4 -14 -13 -31 -21 -17 -7 -33 -19 -35 -26 -3 -7 18 -50 46
-95 28 -45 55 -89 58 -98 10 -24 53 -92 58 -92 2 0 43 23 91 50 169 97 320
140 490 140 219 0 359 -72 425 -218 24 -53 29 -79 31 -150 l2 -87 -370 -3
c-388 -3 -475 -7 -475 -24 0 -6 -10 -8 -24 -4 -15 4 -28 0 -36 -9 -7 -9 -21
-13 -31 -10 -11 4 -19 2 -19 -4 0 -6 -9 -11 -20 -11 -11 0 -20 -4 -20 -10 0
-5 -3 -10 -7 -9 -16 2 -53 -14 -53 -22 0 -5 -5 -9 -11 -9 -24 0 -119 -83 -154
-134 -113 -167 -135 -359 -64 -556 22 -63 90 -159 147 -210 64 -57 188 -122
282 -147 49 -13 105 -17 230 -17 147 1 176 3 264 27 119 33 211 80 299 153
l66 54 3 -108 3 -107 205 0 205 0 -3 670 c-4 656 -8 760 -38 838 -8 21 -12 43
-9 48 4 5 0 12 -9 15 -8 3 -18 19 -21 36 -4 16 -13 32 -21 35 -8 3 -14 10 -14
17 0 12 -123 141 -156 164 -11 7 -27 15 -36 18 -10 4 -18 10 -18 15 0 5 -9 9
-20 9 -11 0 -20 5 -20 11 0 6 -7 9 -15 5 -8 -3 -15 -1 -15 4 0 6 -9 10 -19 10
-11 0 -23 5 -26 11 -4 5 -12 8 -18 6 -7 -2 -20 0 -31 5 -20 11 -31 13 -146 28
-123 16 -225 23 -232 15z m447 -1220 c0 -98 -3 -116 -26 -166 -35 -74 -156
-191 -201 -194 -4 0 -12 -5 -19 -12 -6 -6 -18 -9 -25 -6 -8 3 -14 0 -14 -6 0
-6 -11 -11 -25 -11 -14 0 -25 -4 -25 -10 0 -5 -15 -10 -33 -10 -19 0 -37 -3
-40 -7 -10 -10 -262 -8 -278 3 -8 5 -22 7 -31 6 -10 -2 -18 2 -18 7 0 6 -9 11
-20 11 -11 0 -20 5 -20 11 0 6 -6 9 -13 6 -7 -3 -19 4 -25 14 -7 10 -18 19
-25 19 -16 0 -57 53 -57 73 0 8 -6 19 -13 25 -8 7 -14 41 -16 96 -3 98 16 148
71 189 95 71 126 75 518 73 l335 -1 0 -110z"/>
<path d="M50820 4841 c-14 -5 -51 -9 -82 -10 -31 -1 -60 -6 -63 -11 -4 -6 -19
-9 -35 -8 -15 1 -35 -3 -43 -10 -8 -7 -21 -10 -30 -6 -8 3 -18 1 -22 -5 -3 -6
-15 -11 -26 -11 -10 0 -19 -4 -19 -10 0 -5 -9 -10 -19 -10 -11 0 -23 -5 -26
-10 -4 -6 -11 -7 -17 -4 -6 4 -13 3 -17 -2 -3 -5 -22 -18 -41 -28 -19 -11 -44
-24 -55 -30 -10 -6 -30 -21 -44 -33 -14 -13 -29 -23 -34 -23 -11 0 -125 -123
-166 -179 -18 -25 -50 -81 -72 -124 -21 -43 -43 -84 -48 -91 -6 -7 -8 -16 -4
-19 3 -4 1 -12 -4 -19 -6 -7 -11 -20 -11 -28 -1 -8 -8 -44 -17 -80 -9 -36 -18
-124 -22 -195 -10 -227 37 -427 141 -595 136 -218 329 -350 605 -411 109 -24
373 -26 483 -4 152 31 310 95 410 167 54 39 148 126 148 137 0 13 -45 65 -133
154 l-88 89 -41 -46 c-22 -26 -43 -45 -46 -42 -3 3 -13 -4 -23 -15 -10 -12
-22 -18 -27 -15 -6 3 -13 -1 -16 -10 -3 -8 -10 -12 -16 -9 -5 3 -10 1 -10 -4
0 -6 -9 -11 -20 -11 -11 0 -20 -5 -20 -11 0 -6 -6 -9 -14 -6 -8 3 -17 0 -20
-8 -3 -8 -13 -11 -25 -8 -12 3 -21 1 -21 -6 0 -6 -13 -11 -29 -11 -17 0 -33
-5 -37 -11 -3 -6 -16 -8 -28 -6 -11 3 -50 0 -86 -7 -51 -10 -78 -10 -123 0
-32 6 -66 10 -77 7 -10 -3 -21 0 -24 6 -4 6 -18 11 -32 11 -13 0 -24 5 -24 11
0 7 -9 9 -21 6 -12 -3 -22 0 -25 8 -3 8 -12 11 -20 8 -8 -3 -14 -1 -14 3 0 5
-15 16 -32 23 -81 36 -237 226 -243 296 0 6 -3 15 -7 20 -3 6 -9 27 -13 48
l-7 37 733 2 734 3 3 130 c7 306 -65 563 -205 729 -57 69 -157 155 -179 156
-7 0 -14 7 -18 15 -3 8 -9 15 -13 14 -16 -2 -53 14 -53 23 0 6 -7 8 -15 5 -8
-4 -17 -2 -20 3 -4 6 -15 10 -26 10 -10 0 -19 5 -19 11 0 6 -7 8 -16 5 -8 -3
-25 -1 -37 6 -12 6 -33 13 -47 14 -14 2 -59 8 -100 13 -125 17 -204 21 -230
12z m240 -358 c208 -56 344 -216 366 -430 l7 -63 -558 0 -558 0 7 48 c26 198
182 379 381 443 89 28 255 30 355 2z"/>
<path d="M41772 4133 c3 -528 7 -707 16 -733 7 -19 20 -57 28 -85 52 -167 165
-301 317 -375 117 -56 186 -70 357 -70 124 0 159 4 239 25 174 47 313 144 403
281 l43 65 3 -180 2 -181 210 0 210 0 0 975 0 975 -210 0 -210 0 0 -528 c0
-513 -5 -624 -32 -659 -6 -7 -7 -17 -4 -22 4 -5 2 -12 -4 -16 -5 -3 -10 -14
-10 -25 0 -10 -7 -21 -16 -24 -8 -3 -13 -9 -11 -14 12 -19 -84 -145 -139 -182
-25 -16 -49 -30 -55 -30 -5 0 -9 -5 -9 -11 0 -6 -6 -9 -14 -6 -8 3 -17 -1 -20
-8 -3 -8 -12 -12 -20 -9 -8 3 -17 1 -21 -5 -3 -6 -17 -11 -30 -11 -13 0 -26
-4 -29 -9 -8 -12 -244 -12 -252 0 -3 5 -16 9 -30 9 -13 0 -24 5 -24 10 0 6 -6
10 -12 9 -20 -2 -58 12 -58 22 0 5 -5 9 -10 9 -16 0 -102 89 -126 130 -60 102
-58 80 -62 753 l-3 617 -210 0 -210 0 3 -697z"/>
</g>
</svg>
